<svg xmlns="http://www.w3.org/2000/svg" xmlns:xlink="http://www.w3.org/1999/xlink" viewBox="0 0 870.49 1280"><defs><style>.cls-1{fill:url(#linear-gradient);}.cls-2{fill:url(#linear-gradient-2);}.cls-3{fill:url(#linear-gradient-3);}.cls-4{fill:url(#linear-gradient-4);}.cls-5{fill:url(#linear-gradient-5);}.cls-6{fill:url(#linear-gradient-6);}</style><linearGradient id="linear-gradient" x1="466.92" y1="1247.58" x2="652.77" y2="1061.73" gradientUnits="userSpaceOnUse"><stop offset="0" stop-color="#67d1a3"/><stop offset="1" stop-color="#8debc2"/></linearGradient><linearGradient id="linear-gradient-2" x1="315.96" y1="1016.63" x2="511.06" y2="821.53" xlink:href="#linear-gradient"/><linearGradient id="linear-gradient-3" x1="-34.07" y1="824.57" x2="591.27" y2="199.23" gradientUnits="userSpaceOnUse"><stop offset="0" stop-color="#3159c7"/><stop offset="0.3" stop-color="#3762ce"/><stop offset="0.78" stop-color="#487ce2"/><stop offset="1" stop-color="#5189ed"/></linearGradient><linearGradient id="linear-gradient-4" x1="-290.89" y1="542.39" x2="334.45" y2="-82.95" xlink:href="#linear-gradient-3"/><linearGradient id="linear-gradient-5" x1="188.24" y1="1060.49" x2="804.82" y2="443.91" xlink:href="#linear-gradient-3"/><linearGradient id="linear-gradient-6" x1="-126.98" y1="733.51" x2="499.06" y2="107.47" xlink:href="#linear-gradient-3"/></defs><title>Asset 11</title><g id="Layer_2" data-name="Layer 2"><g id="Target"><g id="Symbol_2" data-name="Symbol 2"><circle class="cls-1" cx="464.51" cy="1250" r="30"/><path class="cls-2" d="M782.64,549.87a300,300,0,0,0-424.27,0C241.22,667,241.22,857,358.37,974.13A300.16,300.16,0,0,0,613.11,1059l-84.88,84.88a30,30,0,1,0,42.42,42.43L782.78,974.15a29.43,29.43,0,0,0,2.06-2.28C899.77,854.55,899.05,666.28,782.64,549.87ZM740.21,931.71a239.08,239.08,0,1,1,52.73-79.37A238.63,238.63,0,0,1,740.21,931.71Z"/></g><g id="Symbol_1" data-name="Symbol 1"><circle class="cls-3" cx="760.5" cy="30" r="30"/><circle class="cls-4" cx="221.5" cy="30" r="30"/><path class="cls-5" d="M654.51,634,600,687.76V583.82a182.88,182.88,0,0,0-60,.32V731.5H393.48a182.69,182.69,0,0,0,0,60H566c.59,0,1.17,0,1.75,0,1.16-.06,2.3-.18,3.43-.35.56-.09,1.12-.19,1.67-.3.88-.18,1.75-.41,2.61-.65a37.37,37.37,0,0,0,3.93-1.4h0a29.93,29.93,0,0,0,10.5-6.72L696.65,676.67A30,30,0,0,0,654.51,634Z"/><path class="cls-6" d="M654.48,93.6l-97.91,97.9H103.34l54.55-53.84A30,30,0,0,0,115.75,95L9,200.33A29.93,29.93,0,0,0,.09,223.11C0,223.9,0,224.7,0,225.5v532c0,.59,0,1.17,0,1.75.06,1.16.18,2.3.35,3.43.09.56.19,1.12.3,1.67.23,1.11.51,2.2.84,3.26a32.14,32.14,0,0,0,1.14,3.12,34,34,0,0,0,4.08,7.11A35.68,35.68,0,0,0,9.39,781c.47.49.95,1,1.45,1.43A32.69,32.69,0,0,0,14,785a35.29,35.29,0,0,0,3.44,2.21,33.92,33.92,0,0,0,7.67,3.12c.67.19,1.36.35,2,.49s1.11.21,1.67.3c1.13.17,2.27.29,3.43.35.58,0,1.16,0,1.75,0H212.25c-.81-9.93-1.25-19.93-1.25-30s.44-20.07,1.25-30H60v-480H540V402.83c10.25-.86,20.59-1.33,31-1.33q14.6,0,29,1.16V232.93L696.9,136A30,30,0,1,0,654.48,93.6Z"/></g></g></g></svg>