<svg xmlns="http://www.w3.org/2000/svg" xmlns:xlink="http://www.w3.org/1999/xlink" viewBox="0 0 1586 1586"><defs><style>.cls-1{fill:none;}.cls-2{fill:url(#linear-gradient);}.cls-3{fill:url(#linear-gradient-2);}.cls-4{fill:url(#linear-gradient-3);}.cls-5{fill:url(#linear-gradient-4);}.cls-6{fill:url(#linear-gradient-5);}.cls-7{fill:url(#linear-gradient-6);}</style><linearGradient id="linear-gradient" x1="824.92" y1="1400.08" x2="1010.77" y2="1214.23" gradientUnits="userSpaceOnUse"><stop offset="0" stop-color="#67d1a3"/><stop offset="1" stop-color="#8debc2"/></linearGradient><linearGradient id="linear-gradient-2" x1="673.96" y1="1169.13" x2="869.06" y2="974.03" xlink:href="#linear-gradient"/><linearGradient id="linear-gradient-3" x1="323.93" y1="977.07" x2="949.27" y2="351.73" gradientUnits="userSpaceOnUse"><stop offset="0" stop-color="#3159c7"/><stop offset="0.3" stop-color="#3762ce"/><stop offset="0.78" stop-color="#487ce2"/><stop offset="1" stop-color="#5189ed"/></linearGradient><linearGradient id="linear-gradient-4" x1="67.11" y1="694.89" x2="692.45" y2="69.55" xlink:href="#linear-gradient-3"/><linearGradient id="linear-gradient-5" x1="546.24" y1="1212.99" x2="1162.82" y2="596.41" xlink:href="#linear-gradient-3"/><linearGradient id="linear-gradient-6" x1="231.02" y1="886.01" x2="857.06" y2="259.97" xlink:href="#linear-gradient-3"/></defs><title>Asset 10</title><g id="Layer_2" data-name="Layer 2"><g id="Target"><rect class="cls-1" width="1586" height="1586"/><g id="Symbol_2" data-name="Symbol 2"><circle class="cls-2" cx="822.51" cy="1402.5" r="30"/><path class="cls-3" d="M1140.64,702.37a300,300,0,0,0-424.27,0c-117.15,117.16-117.15,307.1,0,424.26a300.16,300.16,0,0,0,254.74,84.84l-84.88,84.88a30,30,0,1,0,42.42,42.43l212.13-212.13a29.43,29.43,0,0,0,2.06-2.28C1257.77,1007.05,1257.05,818.78,1140.64,702.37Zm-42.43,381.84a239.08,239.08,0,1,1,52.73-79.37A238.63,238.63,0,0,1,1098.21,1084.21Z"/></g><g id="Symbol_1" data-name="Symbol 1"><circle class="cls-4" cx="1118.5" cy="182.5" r="30"/><circle class="cls-5" cx="579.5" cy="182.5" r="30"/><path class="cls-6" d="M1012.51,786.46,958,840.26V736.32a182.88,182.88,0,0,0-60,.32V884H751.48a182.69,182.69,0,0,0,0,60H924c.59,0,1.17,0,1.75,0,1.16-.06,2.3-.18,3.43-.35.56-.09,1.12-.19,1.67-.3.88-.18,1.75-.41,2.61-.65a37.37,37.37,0,0,0,3.93-1.4h0a29.93,29.93,0,0,0,10.5-6.72l106.76-105.37a30,30,0,0,0-42.14-42.71Z"/><path class="cls-7" d="M1012.48,246.1,914.57,344H461.34l54.55-53.84a30,30,0,1,0-42.14-42.7L367,352.83a29.93,29.93,0,0,0-8.89,22.78c0,.79-.09,1.59-.09,2.39V910c0,.59,0,1.17,0,1.75.06,1.16.18,2.3.35,3.43.09.56.19,1.12.3,1.67.23,1.11.51,2.2.84,3.26a32.14,32.14,0,0,0,1.14,3.12,34,34,0,0,0,4.08,7.11,35.68,35.68,0,0,0,2.64,3.12c.47.49.95,1,1.45,1.43a32.69,32.69,0,0,0,3.15,2.6,35.29,35.29,0,0,0,3.44,2.21,33.92,33.92,0,0,0,7.67,3.12c.67.19,1.36.35,2,.49s1.11.21,1.67.3c1.13.17,2.27.29,3.43.35.58,0,1.16,0,1.75,0H570.25c-.81-9.93-1.25-19.93-1.25-30s.44-20.07,1.25-30H418V404H898V555.33c10.25-.86,20.59-1.33,31-1.33q14.6,0,29,1.16V385.43l96.9-96.91a30,30,0,0,0-42.42-42.42Z"/></g></g></g></svg>